# xmcd
#
# Track frame offsets:
#	150
#	13906
#	26918
#	45403
#	59870
#	81578
#	96489
#	110840
#	130814
#	144156
#	157361
#
# Disc length: 2273 seconds
#
# Revision: 0
# Processed by: cddbd v1.5.1PL0 Copyright (c) Steve Scherf et al.
# Submitted via: dBpowerAMP V4.0
#
DISCID=a808df0b
DTITLE=Deadnecks - Tornados and Trailers
DYEAR=1900
DGENRE=Americana
TTITLE0=Burnin' Down
TTITLE1=Tornados and Trailers
TTITLE2=Crystal Marie
TTITLE3=Another Empty Bottle
TTITLE4=Love and a .45
TTITLE5=Rosalita
TTITLE6=Shed a Tear
TTITLE7=El Mariachi
TTITLE8=On My Way
TTITLE9=Angeline
TTITLE10=Cindy's Waltz
EXTD=
EXTT0=
EXTT1=
EXTT2=
EXTT3=
EXTT4=
EXTT5=
EXTT6=
EXTT7=
EXTT8=
EXTT9=
EXTT10=
PLAYORDER=
